<svg id="svg" version="1.1" xmlns="http://www.w3.org/2000/svg" xmlns:xlink="http://www.w3.org/1999/xlink" width="400" height="400" viewBox="0, 0, 400,400"><g id="svgg"><path id="path0" d="M286.800 73.639 C 252.049 75.619,231.233 91.197,223.989 120.647 C 221.494 130.787,221.127 135.418,220.914 159.394 C 220.728 180.505,220.622 182.280,219.490 183.279 C 219.440 183.323,212.439 183.458,203.932 183.579 L 188.463 183.800 187.432 184.770 L 186.400 185.739 186.400 212.800 L 186.400 239.861 187.432 240.830 L 188.463 241.800 203.818 242.000 C 217.867 242.183,219.234 242.261,219.886 242.914 C 220.566 243.594,220.605 247.398,220.703 321.814 L 220.806 400.000 255.599 400.000 L 290.392 400.000 290.496 322.032 L 290.600 244.064 291.570 243.032 L 292.539 242.000 312.770 241.998 C 334.054 241.995,335.533 241.885,336.629 240.212 C 337.332 239.140,338.465 230.474,340.189 213.000 C 340.975 205.033,341.945 195.932,342.406 192.200 C 343.554 182.902,345.686 183.600,316.163 183.600 L 292.845 183.600 291.722 182.635 L 290.600 181.670 290.471 169.735 C 290.073 132.980,291.238 131.629,323.600 131.325 C 340.725 131.165,340.844 131.156,342.010 129.990 C 342.781 129.219,342.800 128.552,342.800 102.422 L 342.800 75.645 341.835 74.522 L 340.870 73.400 316.735 73.354 C 303.461 73.329,289.990 73.457,286.800 73.639 " stroke="none" fill="#fbfbfb" fill-rule="evenodd"></path><path id="path1" d="M0.000 200.000 L 0.000 400.000 110.403 400.000 L 220.806 400.000 220.703 321.814 C 220.605 247.398,220.566 243.594,219.886 242.914 C 219.234 242.261,217.867 242.183,203.818 242.000 L 188.463 241.800 187.432 240.830 L 186.400 239.861 186.400 212.800 L 186.400 185.739 187.432 184.770 L 188.463 183.800 203.932 183.579 C 212.439 183.458,219.440 183.323,219.490 183.279 C 220.622 182.280,220.728 180.505,220.914 159.394 C 221.258 120.513,225.257 105.879,239.386 91.799 C 254.722 76.516,269.894 72.992,319.135 73.275 L 340.870 73.400 341.835 74.522 L 342.800 75.645 342.800 102.422 C 342.800 128.552,342.781 129.219,342.010 129.990 C 340.844 131.156,340.725 131.165,323.600 131.325 C 291.238 131.629,290.073 132.980,290.471 169.735 L 290.600 181.670 291.722 182.635 L 292.845 183.600 316.163 183.600 C 345.686 183.600,343.554 182.902,342.406 192.200 C 341.945 195.932,340.975 205.033,340.189 213.000 C 338.465 230.474,337.332 239.140,336.629 240.212 C 335.533 241.885,334.054 241.995,312.770 241.998 L 292.539 242.000 291.570 243.032 L 290.600 244.064 290.496 322.032 L 290.392 400.000 345.196 400.000 L 400.000 400.000 400.000 200.000 L 400.000 0.000 200.000 0.000 L 0.000 0.000 0.000 200.000 " stroke="none" fill="#3b5b9b" fill-rule="evenodd"></path></g></svg>